<?xml version="1.0" encoding="UTF-8" standalone="no"?>
<svg version="1.1" id="Layer_1" xmlns="http://www.w3.org/2000/svg" xmlns:xlink="http://www.w3.org/1999/xlink" x="0px" y="0px"
	 width="100px" height="100px" viewBox="0 0 100 100" enable-background="new 0 0 100 100" xml:space="preserve">

  <g fill="#A30013" stroke="#E25725" stroke-width="2" stroke-opacity="1" stroke-linecap="round" stroke-linejoin="round"><path d="M96.3,31.2c-2.5,-6.3-6.1,-11.8-11,-16.6C80.5,9.8,75,6.2,68.8,3.7C62.8,1.2,56.5,0,50,0S37.2,1.2,31.1,3.7c-6.2,2.5-11.7,6.1-16.5,10.9c-4.8,4.8-8.4,10.3-11,16.6C1.2,37.2,0,43.5,0,50s1.2,12.8,3.6,18.8c2.6,6.3,6.2,11.8,11,16.5c4.8,4.8,10.3,8.5,16.5,11.1c6.1,2.4,12.4,3.6,18.9,3.6s12.8,-1.2,18.8,-3.6c6.2,-2.6,11.7,-6.3,16.5,-11.1c4.9,-4.7,8.5,-10.2,11,-16.5c2.5,-6,3.7,-12.3,3.7,-18.8S98.8,37.2,96.3,31.2z"/></g>

</svg>


