<?xml version="1.0" encoding="UTF-8" standalone="no"?>
<svg version="1.1" id="Layer_1" xmlns="http://www.w3.org/2000/svg" xmlns:xlink="http://www.w3.org/1999/xlink" x="0px" y="0px"
	 width="100px" height="100px" viewBox="0 0 100 100" enable-background="new 0 0 100 100" xml:space="preserve">

  <g fill="#A30013" stroke="#E25725" stroke-width="2" stroke-opacity="1" stroke-linecap="round" stroke-linejoin="round"><path d="M91.1,37.5l5.1,-6.7l-8.3,-1l3.7,-7.6l-8.4,0.6l2.2,-8.2l-8.2,2.2l0.6,-8.4l-7.6,3.7l-1,-8.3l-6.7,5L59.8,1l-5.6,6.3L50,0l-4.2,7.3L40.2,1l-2.7,7.8l-6.6,-5l-1.1,8.3l-7.6,-3.7l0.6,8.4l-8.1,-2.2l2.2,8.2l-8.5,-0.6l3.8,7.6l-8.4,1l5.1,6.7L1,40.2l6.3,5.6L0,50l7.3,4.2L1,59.8l7.9,2.7l-5.1,6.6l8.4,1.1l-3.8,7.5l8.5,-0.5l-2.2,8.1l8.1,-2.1l-0.6,8.4l7.6,-3.8l1.1,8.3l6.6,-5l2.7,7.9l5.6,-6.2L50,100l4.2,-7.2l5.6,6.2l2.7,-7.9l6.7,5l1,-8.3l7.6,3.8l-0.6,-8.4l8.2,2.1l-2.2,-8.1l8.4,0.5l-3.7,-7.5l8.3,-1.1l-5.1,-6.6l7.9,-2.7l-6.3,-5.6L100,50l-7.3,-4.2l6.3,-5.6L91.1,37.5z"/></g>

</svg>


