<?xml version="1.0" encoding="UTF-8" standalone="no"?>
<svg version="1.1" id="Layer_1" xmlns="http://www.w3.org/2000/svg" xmlns:xlink="http://www.w3.org/1999/xlink" x="0px" y="0px"
	 width="100px" height="100px" viewBox="0 0 100 100" enable-background="new 0 0 100 100" xml:space="preserve">

  <g fill="#A30013" stroke="#E25725" stroke-width="2" stroke-opacity="1" stroke-linecap="round" stroke-linejoin="round"><path d="M90.169,16.23c-1.7,-3.5-4.2,-6.2-7.7,-7.9c-3.3,-1.5-6.4,-1.9-9.5,-1c-3.2,0.9-5.2,2.9-6,6c-0.8,-4.3-2.6,-7.6-5.5,-10c-2.6,-2.1-5.6,-3.1-9.1,-3.3c-3.4,-0.2-6.3,0.6-8.8,2.2c-2.6,1.6-4.1,3.8-4.5,6.6c-5.5,-6.9-11.4,-8.3-17.7,-4.1c-2.5,1.6-4.5,3.8-5.8,6.6c-1.5,2.9-2,5.5-1.7,8c-2.8,-0.1-5.4,1-7.8,3.5c-2.1,2.2-3.8,5.2-4.9,8.8c-1.1,3.6-1.4,7-1,10.3c0.5,3.6,1.8,6.2,4,8c-2.1,3.2-2.9,6.9-2.6,10.9c0.3,3.6,1.5,7,3.6,10.2c1.8,3.1,4,5.1,6.4,6.4c2.6,1.3,4.7,1.2,6.5,-0.3c-1,3.8-0.4,7.3,1.7,10.5c1.7,2.7,4.3,4.9,7.6,6.2c3.1,1.4,6,1.7,8.6,1c2.8,-0.8,4.5,-2.6,4.9,-5.5c1.1,4.5,3.3,7.6,6.6,9.3c2.9,1.5,6.2,1.8,9.9,0.8c3.4,-0.8,6.4,-2.5,8.8,-5.1c2.4,-2.6,3.6,-5.4,3.3,-8.2c1.7,2,3.8,2.9,6.5,2.7c2.5,-0.2,5,-1.4,7.3,-3.4c2.5,-2.2,4.2,-4.7,5.2,-7.6c1.2,-3.4,1.2,-6.7,0.1,-10.1c4,-0.2,7,-2.5,9.1,-6.7c1.7,-3.7,2.5,-8.2,2.3,-13.5c-0.2,-5-1.2,-9.3-2.9,-12.7c-1.9,-3.6-4,-5-6.5,-4.3C92.069,25.13,91.969,20.33,90.169,16.23z"/></g>

</svg>


