<?xml version="1.0" encoding="UTF-8" standalone="no"?>
<svg version="1.1" id="Layer_1" xmlns="http://www.w3.org/2000/svg" xmlns:xlink="http://www.w3.org/1999/xlink" x="0px" y="0px"
	 width="100px" height="100px" viewBox="0 0 100 100" enable-background="new 0 0 100 100" xml:space="preserve">

  <g fill="#A30013" stroke="#E25725" stroke-width="2" stroke-opacity="1" stroke-linecap="round" stroke-linejoin="round"><path d="M100,35.3c0,-9.6-2.1,-17.6-6.2,-23.8c-3.7,-5.7-8.5,-9.3-14.3,-10.6c-5.7,-1.3-11.3,-0.2-16.5,3.3c-5.8,3.8-10,9.7-13,17.8c-3.1,-8.4-7.5,-14.5-13.2,-18.2c-5.4,-3.6-10.9,-4.6-16.6,-3.2c-5.8,1.4-10.5,5-14.2,10.9c-4,6.3-5.9,14.3-6,23.8c-0.1,9.7,3.3,17.9,10.2,24.9c2.3,2.3,5.5,5,9.6,7.9c2.1,1.5,5.3,3.8,9.5,6.8c5.2,3.9,9.9,8.6,14.2,13.9c3.6,4.7,5.9,8.4,6.5,11.2c0.6,-2.6,2.9,-6.4,6.8,-11.3c4.2,-5.5,8.9,-10.3,13.9,-14.3c1.1,-0.9,4.2,-3.3,9.5,-7c4,-3,7.3,-5.6,9.6,-7.9C96.7,52.6,100,44.6,100,35.3z"/></g>

</svg>


