<?xml version="1.0" encoding="UTF-8" standalone="no"?>
<svg cpbv:version="1.0" cpbv:libraryIds="" width="380" height="380" xmlns:dc="http://purl.org/dc/elements/1.1/" xmlns:cc="http://web.resource.org/cc/" xmlns:rdf="http://www.w3.org/1999/02/22-rdf-syntax-ns#" xmlns:svg="http://www.w3.org/2000/svg" xmlns="http://www.w3.org/2000/svg" xmlns:xlink="http://www.w3.org/1999/xlink" xmlns:cpbv="http://www.cafepress.com/splash">  

<g cpbv:class="ShapeArt" cpbv:x="0" cpbv:y="0" cpbv:width="400" cpbv:height="400" cpbv:rotation="0" cpbv:editable="all" cpbv:shape-name="square" cpbv:stroke-width="1" cpbv:stroke-color="14833445" cpbv:fill-style="solid" cpbv:fill-color="10682387" cpbv:exported-stenciled-picture-index="-1" cpbv:stroke-opacity="1" transform="translate(0,0) scale(1) rotate(0) translate(0,0)" fill="#A30013" stroke="#E25725" stroke-width="2" stroke-opacity="1" stroke-linecap="round" stroke-linejoin="round"><path stroke-width="2" d="M100,0L0,0L0,100L100,100L100,0z"/></g>

  <g cpbv:class="ShapeArt" cpbv:x="0" cpbv:y="0" cpbv:width="200" cpbv:height="200" cpbv:rotation="0" cpbv:editable="all" cpbv:shape-name="circle" cpbv:stroke-width="1" cpbv:stroke-color="14833445" cpbv:fill-style="solid" cpbv:fill-color="10682387" cpbv:exported-stenciled-picture-index="-1" cpbv:stroke-opacity="1" transform="translate(0,0) scale(1) rotate(0) translate(0,0)" fill="#A30013" stroke="#E25725" stroke-width="2" stroke-opacity="1" stroke-linecap="round" stroke-linejoin="round"><path stroke-width="2" d="M96.3,31.2c-2.5,-6.3-6.1,-11.8-11,-16.6C80.5,9.8,75,6.2,68.8,3.7C62.8,1.2,56.5,0,50,0S37.2,1.2,31.1,3.7c-6.2,2.5-11.7,6.1-16.5,10.9c-4.8,4.8-8.4,10.3-11,16.6C1.2,37.2,0,43.5,0,50s1.2,12.8,3.6,18.8c2.6,6.3,6.2,11.8,11,16.5c4.8,4.8,10.3,8.5,16.5,11.1c6.1,2.4,12.4,3.6,18.9,3.6s12.8,-1.2,18.8,-3.6c6.2,-2.6,11.7,-6.3,16.5,-11.1c4.9,-4.7,8.5,-10.2,11,-16.5c2.5,-6,3.7,-12.3,3.7,-18.8S98.8,37.2,96.3,31.2z"/></g>

  <g cpbv:class="ShapeArt" cpbv:x="0" cpbv:y="0" cpbv:width="200" cpbv:height="200" cpbv:rotation="0" cpbv:editable="all" cpbv:shape-name="star" cpbv:stroke-width="1" cpbv:stroke-color="14833445" cpbv:fill-style="solid" cpbv:fill-color="10682387" cpbv:exported-stenciled-picture-index="-1" cpbv:stroke-opacity="1" transform="translate(0,0) scale(1) rotate(0) translate(0,0)" fill="#A30013" stroke="#E25725" stroke-width="2" stroke-opacity="1" stroke-linecap="round" stroke-linejoin="round"><path stroke-width="2" d="M61.8,38.2L50,0L38.2,38.2L0,38.2l30.9,23.6L19.1,100L50,76.4L80.9,100L69.1,61.7998L100,38.2L61.8,38.2z"/></g>

  <g cpbv:class="ShapeArt" cpbv:x="0" cpbv:y="0" cpbv:width="200" cpbv:height="200" cpbv:rotation="0" cpbv:editable="all" cpbv:shape-name="arrow" cpbv:stroke-width="1" cpbv:stroke-color="14833445" cpbv:fill-style="solid" cpbv:fill-color="10682387" cpbv:exported-stenciled-picture-index="-1" cpbv:stroke-opacity="1" transform="translate(0,0) scale(1) rotate(0) translate(0,0)" fill="#A30013" stroke="#E25725" stroke-width="2" stroke-opacity="1" stroke-linecap="round" stroke-linejoin="round"><path stroke-width="2" d="M75,0L25,0L25,75L0,75L50,100L100,75L75,75L75,0"/></g>


  <g cpbv:class="ShapeArt" cpbv:x="0" cpbv:y="0" cpbv:width="200" cpbv:height="200" cpbv:rotation="0" cpbv:editable="all" cpbv:shape-name="heart" cpbv:stroke-width="1" cpbv:stroke-color="14833445" cpbv:fill-style="solid" cpbv:fill-color="10682387" cpbv:exported-stenciled-picture-index="-1" cpbv:stroke-opacity="1" transform="translate(0,0) scale(1) rotate(0) translate(0,0)" fill="#A30013" stroke="#E25725" stroke-width="2" stroke-opacity="1" stroke-linecap="round" stroke-linejoin="round"><path stroke-width="2" d="M100,35.3c0,-9.6-2.1,-17.6-6.2,-23.8c-3.7,-5.7-8.5,-9.3-14.3,-10.6c-5.7,-1.3-11.3,-0.2-16.5,3.3c-5.8,3.8-10,9.7-13,17.8c-3.1,-8.4-7.5,-14.5-13.2,-18.2c-5.4,-3.6-10.9,-4.6-16.6,-3.2c-5.8,1.4-10.5,5-14.2,10.9c-4,6.3-5.9,14.3-6,23.8c-0.1,9.7,3.3,17.9,10.2,24.9c2.3,2.3,5.5,5,9.6,7.9c2.1,1.5,5.3,3.8,9.5,6.8c5.2,3.9,9.9,8.6,14.2,13.9c3.6,4.7,5.9,8.4,6.5,11.2c0.6,-2.6,2.9,-6.4,6.8,-11.3c4.2,-5.5,8.9,-10.3,13.9,-14.3c1.1,-0.9,4.2,-3.3,9.5,-7c4,-3,7.3,-5.6,9.6,-7.9C96.7,52.6,100,44.6,100,35.3z"/></g>

  <g cpbv:class="ShapeArt" cpbv:x="0" cpbv:y="0" cpbv:width="200" cpbv:height="200" cpbv:rotation="0" cpbv:editable="all" cpbv:shape-name="no" cpbv:stroke-width="1" cpbv:stroke-color="14833445" cpbv:fill-style="solid" cpbv:fill-color="10682387" cpbv:exported-stenciled-picture-index="-1" cpbv:stroke-opacity="1" transform="translate(0,0) scale(1) rotate(0) translate(0,0)" fill="#A30013" stroke="#E25725" stroke-width="2" stroke-opacity="1" stroke-linecap="round" stroke-linejoin="round"><path stroke-width="2" d="M96.3,31.2c-2.5,-6.3-6.1,-11.8-11,-16.6C80.5,9.8,75,6.2,68.8,3.7C62.8,1.2,56.5,0,50,0S37.2,1.2,31.1,3.7c-6.2,2.5-11.7,6.1-16.5,10.9c-4.8,4.8-8.4,10.3-11,16.6C1.2,37.2,0,43.5,0,50s1.2,12.8,3.6,18.8c2.6,6.3,6.2,11.8,11,16.5c4.8,4.8,10.3,8.5,16.5,11.1c6.1,2.4,12.4,3.6,18.9,3.6s12.8,-1.2,18.8,-3.6c6.2,-2.6,11.7,-6.3,16.5,-11.1c4.9,-4.7,8.5,-10.2,11,-16.5c2.5,-6,3.7,-12.3,3.7,-18.8S98.8,37.2,96.3,31.2zM14.645,85.355L85.355,14.645"/></g>

  <g cpbv:class="ShapeArt" cpbv:x="0" cpbv:y="0" cpbv:width="200" cpbv:height="200" cpbv:rotation="0" cpbv:editable="all" cpbv:shape-name="stop" cpbv:stroke-width="1" cpbv:stroke-color="14833445" cpbv:fill-style="solid" cpbv:fill-color="10682387" cpbv:exported-stenciled-picture-index="-1" cpbv:stroke-opacity="1" transform="translate(0,0) scale(1) rotate(0) translate(0,0)" fill="#A30013" stroke="#E25725" stroke-width="2" stroke-opacity="1" stroke-linecap="round" stroke-linejoin="round"><path stroke-width="2" d="M70,0L30,0L0,30L0,70L30,100L70,100L100,70L100,30L70,0z"/></g>

  <g cpbv:class="ShapeArt" cpbv:x="0" cpbv:y="0" cpbv:width="200" cpbv:height="200" cpbv:rotation="0" cpbv:editable="all" cpbv:shape-name="cloud" cpbv:stroke-width="1" cpbv:stroke-color="14833445" cpbv:fill-style="solid" cpbv:fill-color="10682387" cpbv:exported-stenciled-picture-index="-1" cpbv:stroke-opacity="1" transform="translate(0,0) scale(1) rotate(0) translate(0,0)" fill="#A30013" stroke="#E25725" stroke-width="2" stroke-opacity="1" stroke-linecap="round" stroke-linejoin="round"><path stroke-width="2" d="M90.169,16.23c-1.7,-3.5-4.2,-6.2-7.7,-7.9c-3.3,-1.5-6.4,-1.9-9.5,-1c-3.2,0.9-5.2,2.9-6,6c-0.8,-4.3-2.6,-7.6-5.5,-10c-2.6,-2.1-5.6,-3.1-9.1,-3.3c-3.4,-0.2-6.3,0.6-8.8,2.2c-2.6,1.6-4.1,3.8-4.5,6.6c-5.5,-6.9-11.4,-8.3-17.7,-4.1c-2.5,1.6-4.5,3.8-5.8,6.6c-1.5,2.9-2,5.5-1.7,8c-2.8,-0.1-5.4,1-7.8,3.5c-2.1,2.2-3.8,5.2-4.9,8.8c-1.1,3.6-1.4,7-1,10.3c0.5,3.6,1.8,6.2,4,8c-2.1,3.2-2.9,6.9-2.6,10.9c0.3,3.6,1.5,7,3.6,10.2c1.8,3.1,4,5.1,6.4,6.4c2.6,1.3,4.7,1.2,6.5,-0.3c-1,3.8-0.4,7.3,1.7,10.5c1.7,2.7,4.3,4.9,7.6,6.2c3.1,1.4,6,1.7,8.6,1c2.8,-0.8,4.5,-2.6,4.9,-5.5c1.1,4.5,3.3,7.6,6.6,9.3c2.9,1.5,6.2,1.8,9.9,0.8c3.4,-0.8,6.4,-2.5,8.8,-5.1c2.4,-2.6,3.6,-5.4,3.3,-8.2c1.7,2,3.8,2.9,6.5,2.7c2.5,-0.2,5,-1.4,7.3,-3.4c2.5,-2.2,4.2,-4.7,5.2,-7.6c1.2,-3.4,1.2,-6.7,0.1,-10.1c4,-0.2,7,-2.5,9.1,-6.7c1.7,-3.7,2.5,-8.2,2.3,-13.5c-0.2,-5-1.2,-9.3-2.9,-12.7c-1.9,-3.6-4,-5-6.5,-4.3C92.069,25.13,91.969,20.33,90.169,16.23z"/></g>
  
  <g cpbv:class="ShapeArt" cpbv:x="0" cpbv:y="0" cpbv:width="200" cpbv:height="200" cpbv:rotation="0" cpbv:editable="all" cpbv:shape-name="triangle" cpbv:stroke-width="1" cpbv:stroke-color="14833445" cpbv:fill-style="solid" cpbv:fill-color="10682387" cpbv:exported-stenciled-picture-index="-1" cpbv:stroke-opacity="1" transform="translate(0,0) scale(1) rotate(0) translate(0,0)" fill="#A30013" stroke="#E25725" stroke-width="2" stroke-opacity="1" stroke-linecap="round" stroke-linejoin="round"><path stroke-width="2" d="M0,100L100,100L50,0L0,100z"/></g>

  <g cpbv:class="ShapeArt" cpbv:x="0" cpbv:y="0" cpbv:width="200" cpbv:height="200" cpbv:rotation="0" cpbv:editable="all" cpbv:shape-name="burst" cpbv:stroke-width="1" cpbv:stroke-color="14833445" cpbv:fill-style="solid" cpbv:fill-color="10682387" cpbv:exported-stenciled-picture-index="-1" cpbv:stroke-opacity="1" transform="translate(0,0) scale(1) rotate(0) translate(0,0)" fill="#A30013" stroke="#E25725" stroke-width="2" stroke-opacity="1" stroke-linecap="round" stroke-linejoin="round"><path stroke-width="2" d="M91.1,37.5l5.1,-6.7l-8.3,-1l3.7,-7.6l-8.4,0.6l2.2,-8.2l-8.2,2.2l0.6,-8.4l-7.6,3.7l-1,-8.3l-6.7,5L59.8,1l-5.6,6.3L50,0l-4.2,7.3L40.2,1l-2.7,7.8l-6.6,-5l-1.1,8.3l-7.6,-3.7l0.6,8.4l-8.1,-2.2l2.2,8.2l-8.5,-0.6l3.8,7.6l-8.4,1l5.1,6.7L1,40.2l6.3,5.6L0,50l7.3,4.2L1,59.8l7.9,2.7l-5.1,6.6l8.4,1.1l-3.8,7.5l8.5,-0.5l-2.2,8.1l8.1,-2.1l-0.6,8.4l7.6,-3.8l1.1,8.3l6.6,-5l2.7,7.9l5.6,-6.2L50,100l4.2,-7.2l5.6,6.2l2.7,-7.9l6.7,5l1,-8.3l7.6,3.8l-0.6,-8.4l8.2,2.1l-2.2,-8.1l8.4,0.5l-3.7,-7.5l8.3,-1.1l-5.1,-6.6l7.9,-2.7l-6.3,-5.6L100,50l-7.3,-4.2l6.3,-5.6L91.1,37.5z"/></g>

</svg>


