<?xml version="1.0" encoding="iso-8859-1"?>
<!-- Generator: Adobe Illustrator 14.0.0, SVG Export Plug-In . SVG Version: 6.00 Build 43363)  -->
<!DOCTYPE svg PUBLIC "-//W3C//DTD SVG 1.1//EN" "http://www.w3.org/Graphics/SVG/1.1/DTD/svg11.dtd">
<svg version="1.1" id="Layer_1" xmlns="http://www.w3.org/2000/svg" xmlns:xlink="http://www.w3.org/1999/xlink" x="0px" y="0px"
	 width="416.056px" height="409.752px" viewBox="0 0 416.056 409.752" style="enable-background:new 0 0 416.056 409.752;"
	 xml:space="preserve">
<g id="vn0">
	<g id="v">
		<path d="M217.676,55.08c3.816,1.8,6.264-1.8,10.152-1.08c2.447-1.872,6.84-3.024,6.84-6.912c-2.16-6.408-10.512-7.128-15.191-3.96
			c-2.953,2.088-3.961,5.4-4.32,8.712C216.02,52.92,216.309,54.864,217.676,55.08z M223.436,44.568c1.152-0.36,2.088,0.72,2.881,0
			c0.432,1.656,2.951,0.504,2.231,2.52c-2.663,2.664-5.832,5.184-9.432,4.392C219.836,48.888,221.564,46.729,223.436,44.568z"/>
		<path d="M174.908,38.448c-5.544,0.216-11.232,2.448-16.272,5.04c-6.408,3.24,3.672,8.424-2.232,16.92
			c-8.568,8.208-7.128,26.568-1.44,32.688c7.92-1.224,12.312-9.36,15.984-15.552c-0.36-13.68,18.072-13.464,20.304-26.424
			c-3.24-2.808-6.768-4.896-10.152-7.272L174.908,38.448z M184.7,54.72c-4.032,4.752-9.288,6.696-13.392,11.232
			c-1.8,3.528-3.816,6.984-4.752,10.872c-2.52,3.888-5.76,9.648-10.872,10.152c-9.216-15.768,11.088-24.552,5.832-39.096
			c3.384-2.16,7.416-3.024,10.872-5.112c3.744,1.08,6.48,4.32,9.792,6.552C182.252,51.408,187.364,51.552,184.7,54.72z"/>
		<path d="M92.684,117.433c4.68,0.647,8.784-2.16,12.672-4.752c3.024-1.944,4.32-5.688,4.68-8.712
			c-0.864-1.728-3.024-3.096-4.68-2.52c-5.976-1.8-9,4.176-12.672,7.632C90.236,111.384,90.092,115.128,92.684,117.433z
			 M103.124,103.968c1.008,0,1.728,0.792,2.592,1.152c-1.728,3.888-5.904,6.408-9.072,9c-1.08,0.288-1.08-0.36-1.44-1.08
			C95.78,108.864,99.812,106.128,103.124,103.968z"/>
		<path d="M106.436,121.393c0.216,1.872,1.512,2.592,2.88,3.672c4.752,0.504,6.12-3.312,9.072-6.192
			c-0.36-2.736,2.52-6.84-1.08-8.352c-1.944,0.504-4.248,0.216-5.76,1.44C108.668,114.264,106.004,117.289,106.436,121.393z
			 M116.228,114.912c-0.432,2.304-1.08,4.968-3.672,6.12c-0.864,0-1.584-0.36-2.16-1.08
			C111.044,117.289,113.564,112.824,116.228,114.912z"/>
		<path d="M387.236,242.064c-1.656-0.504-3.313-3.096-5.041-1.08c-1.656,9.144-8.711,15.479-9.432,24.984
			c0.576,2.592,0.287,5.688,2.881,7.271c0.863,0.504,1.943,1.8,2.879,1.08c1.801,0.072,4.176-1.152,5.4-2.952
			c4.896-6.983,7.92-15.264,6.912-24.264C390.043,245.305,388.459,243.721,387.236,242.064z M377.803,270.288
			c-4.535-2.592,6.336-20.231,8.713-22.464C388.172,248.112,387.092,268.272,377.803,270.288z"/>
		<path d="M210.908,0C96.356,0,1.604,92.017,0.02,204.841c-1.584,112.896,90.648,204.911,205.2,204.911
			c114.551,0,209.231-92.016,210.815-204.911C417.619,92.017,325.459,0,210.908,0z M326.324,48.601
			c5.471,3.6,10.871,7.776,15.982,12.312c0.289,3.888,3.816,6.264,6.193,9c1.584,0.72,1.871-2.16,3.6-1.008
			c6.264,3.96,2.951,12.672,5.76,18.432c3.023-2.232,5.904,0.936,9.072,1.44c7.199,9.504,13.031,17.712,18.504,27.936
			c3.385,6.336,6.553,12.744,9.072,19.512c3.168,8.855,6.264,17.855,7.92,27.216c1.08,5.832,1.801,11.592,1.801,17.712
			c-4.682-1.584-11.305-2.016-14.473-6.479c-6.553-9.36,2.879-17.929,0.359-27.576c-0.863-3.528-2.664-6.265-3.24-9.792
			c-3.023-2.232-7.559-0.648-10.871-2.088c-3.529-5.4-8.209-11.305-15.625-11.305c-4.32,0-8.566,2.305-12.24,2.88
			c-0.646,1.009-3.238,2.16-1.871,4.032c4.465,6.12,0.721,15.048,5.473,21.024c2.447,1.08,3.168-1.944,5.398-1.513
			c3.457-1.655,3.602-5.399,5.832-7.92c2.881,2.16,7.85,2.305,8.713,6.553c1.439,7.344,1.08,13.752,1.439,21.312
			c1.945,2.736,1.801,6.264,4.32,8.712c1.08,5.616,3.527,10.944,0,16.704c-5.543,9.216-13.68,17.424-15.191,28.584
			c-0.576,3.888,3.168,6.624,6.48,7.992c0.215,3.023,0.936,6.12,0,9.072c-1.729,5.76-5.977,10.512-6.842,16.632
			c-4.104,7.992,0.721,16.992-3.672,24.695c-2.734,4.753-7.416,6.841-10.871,10.801c-2.305,1.151-4.393,2.592-6.84,3.312
			c-4.393-13.104-8.855-28.943-23.977-33.695c-2.232-1.585-6.047-0.937-7.199-3.961c-4.248-11.88,0.648-23.976-2.16-35.928
			c-1.08-1.872-1.656-3.96-2.881-5.76c-5.543-4.32-9.576-10.44-16.703-10.152c-11.449,0.433-19.943,12.456-32.256,10.152
			c-11.736-2.304-18.72-11.304-29.376-15.192c-1.08-2.952-2.16-5.832-3.24-8.784c0.792-15.264-5.184-32.111,3.96-46.008
			c3.385-4.968,3.528-11.088,7.992-15.552c1.512-3.6,4.896-6.696,8.712-7.632c11.087-2.664,24.048,0.864,33.335-6.48
			c4.248,2.232,9.145,2.664,12.672,6.48c5.113,2.88,11.664,2.16,17.354,3.312c9.504-3.672,17.711-12.6,19.943-22.104
			c2.232-3.384-0.863-6.336-1.367-9.432c-6.625-3.528-7.273-10.872-12.025-15.624c-3.816-3.816-7.92-0.144-11.52,0.792
			c-2.375,0.576-3.313,3.6-3.313,6.12c1.297,3.528,3.961,5.976,6.912,7.992c0.289,1.152-0.504,1.944-0.719,2.88
			c-3.385-2.52-6.121-1.224-10.152-1.08c-1.008-5.328-0.361-11.664-5.832-14.832c-2.16-0.36-3.961-2.088-6.48-1.08
			c-5.039,1.944-6.119,8.568-12.385,7.56c-5.902-0.936-4.463-8.136-9.791-10.512c-3.023,0.72-6.121,0-9.359,1.44
			c-2.16,1.008-3.313,2.592-4.752,4.392c0.432,2.376,0.646,5.04-1.08,6.84c-1.297,1.368-3.816,0.288-4.68,2.52
			c-0.648,1.8,1.08,3.168,0,4.752c-5.041-0.432-9.648-3.168-13.465-6.12c1.944-5.976,3.024-12.672,4.032-18.864
			c5.688-8.136,19.007-4.032,21.743-15.624c-0.936-3.096,0.217-6.696,0.361-9.36c2.303-2.592,6.551-2.376,9.432-4.392
			c2.52-0.144,5.039-1.296,7.559-0.36c3.816-2.736,3.385-8.424,3.672-12.672c6.48-1.296,13.32,0.288,19.514-1.8
			C303.859,36.145,315.451,41.256,326.324,48.601z M254.611,17.784c4.465,0.36,8.496,1.944,12.672,2.88
			c-2.951,3.024-7.488,3.312-11.592,2.52C254.107,22.032,254.324,19.8,254.611,17.784z M31.772,118.873l-0.36,7.919l-5.4,4.032
			C27.668,126.721,29.828,122.544,31.772,118.873z M12.548,192.097c-0.864-5.185,5.76-6.912,5.472-11.664
			c-3.384-1.152-2.232-4.752-3.96-6.84c0.576-10.944,5.256-21.024,7.272-31.536c1.512-8.064,12.096-5.761,15.192-13.752
			c0.36-6.192,0.864-11.808-0.432-17.784c7.488-17.064,27.936-39.096,42.12-49.968c1.512-0.144,2.88,0.072,3.96,1.08
			c1.008,4.536-1.944,9.504-0.72,14.472c4.752,1.224,9.504,4.608,14.472,2.16c3.456-3.024,2.736-8.856,8.352-10.08
			c3.384-0.864,6.984-0.648,8.64-4.392c1.728-3.816,2.808-8.28,5.832-11.232c6.696,1.152,14.688-7.2,18.864,0.72
			c2.736,5.256-4.032,9.144-2.88,14.472c1.008,5.328,11.952,5.616,6.84,12.672c-1.584,2.304-1.44,6.048-4.32,7.272
			c-3.384,1.368-6.048-2.16-9.072,0c-2.232,7.56-14.256,6.48-12.672,15.192c1.8,1.584,4.536,1.584,6.84,1.872
			c0.072,1.728-0.72,4.896,1.44,6.12c3.024,1.8,6.768-1.152,9.432-1.08c3.6-2.52,7.056-6.912,11.952-6.912
			c1.8,2.16,3.96,4.248,4.392,6.912c0.36,2.592-2.448,4.32-2.592,6.912c-3.384,3.168-10.224,2.016-10.872,7.92
			c-0.144,1.655-0.792,3.6-0.36,5.111c-2.88,11.304,13.032,7.849,10.512,19.225l-3.24,6.84c-2.52,2.448-5.688,3.815-7.56,6.912
			c1.944,7.344,4.536,18.071-2.592,23.903c-1.8,5.904,6.552,8.712,5.112,14.473c-0.864,3.168-0.288,7.416-2.88,9.432
			c-2.52-0.648-4.968-1.656-5.832-4.68c-6.552-7.057-2.808-18-11.592-23.185c-3.024-0.432-6.408,0.216-9.792,0
			c-4.824,1.296-6.984,6.624-12.312,6.84c-4.896,2.089-12.312-3.743-15.192,4.32c-2.088,5.688-6.84,10.8-5.832,17.064
			c-1.008,2.664,2.376,3.096,3.312,4.392c5.112,3.096,14.256-1.008,16.632,6.12c2.088,6.12,5.688,12.96,12.672,13.752
			c7.56,0.864,14.544-3.456,22.104-3.6c5.544,2.231,4.32,9.432,10.512,10.151c6.336-3.168,15.48-2.231,21.024,2.16
			c2.016,3.384,5.256,6.264,5.76,10.152c0.864,6.048,2.016,12.527,2.232,18.863c-2.016,0.072-4.248,2.377-5.112,4.32
			c-2.016,4.32-0.864,9.36-0.72,13.752c-1.296,4.536-5.688,7.632-9.432,10.152c-3.096,4.896-11.808,8.424-6.912,15.552
			c-0.504,5.832,1.872,10.296,2.232,15.984c0.36,5.76-4.248,9.792-3.96,15.552c2.664,4.536,10.368,6.696,9.36,13.032
			c-0.72,4.607,0.648,9.144,3.672,11.664c1.728,1.439,4.608,1.296,5.76,3.6c0.36,2.016,0.72,4.104,1.08,6.192
			c-5.256-1.872-11.016-2.232-16.272-4.032c-8.496-8.712-15.048-18.792-22.176-28.656c-6.336-0.288-13.248,2.592-19.152-1.008
			c-4.896-6.552-13.752-7.848-19.224-12.744c-2.448-5.76-6.264-10.872-6.12-17.712c0.288-11.808-16.776-7.416-15.624-19.944
			c-2.16-8.208-4.32-16.416-6.48-24.695c1.512-3.024,2.088-8.496,6.84-8.28c1.944-3.024,0.72-7.128,4.032-9.792
			c5.472-4.464,13.248-3.6,17.712-9.432c-0.576-5.977,4.176-13.824-2.16-18.072c-2.808,1.224-5.04-0.792-7.632-1.152
			c-1.944-5.76-8.208-8.855-13.032-11.52c-4.608-1.08-9.864-1.8-13.392,2.16c-2.88-1.297-6.912-0.217-9.432-2.16
			c-5.4-4.248-5.256-12.528-12.312-14.544c-5.4,2.304-10.8,4.392-16.632,5.472C11.036,201.744,13.484,196.849,12.548,192.097z
			 M290.467,373.608c-8.783,5.04-18.143,9.504-27.863,12.672c-13.465,4.32-26.783,8.928-42.047,9.072
			c-9.072,0-18.145,2.592-27.217,0.72c0-2.736,2.592-4.896,4.392-6.192c3.744,0.072,7.56-2.304,11.232-1.8
			c3.601-9.359,10.152-16.632,15.624-24.624c5.328-4.248,10.944,6.84,15.912,0c2.016-0.216,3.168-2.592,5.4-2.231
			c5.76,1.08,13.104,5.688,18.504,0c4.391-4.608,11.303-5.977,17.063-6.84c1.945-4.248,2.377-9.433,6.48-12.313
			c3.023,0.792,5.832-0.504,7.633,2.521c3.311-0.864,6.984-2.16,10.512-0.721c1.584,3.601,2.088,9.216,7.199,9.792
			c2.449,1.296,4.752-0.288,6.912,1.8C311.564,363.097,300.764,367.633,290.467,373.608z M327.836,349.992
			c-4.393-0.432-9.576,1.225-13.033-1.439c-3.672-2.736-2.52-11.88-9.432-9c-5.256-1.656-12.313-1.08-17.783-3.313
			c-7.633,0.937-6.336,9.648-10.873,13.464c-6.768,1.513-13.463,4.176-18.432,9.433c-5.039-1.44-9.719-3.385-15.623-2.593
			c-2.52,1.513-5.112,4.969-8.352,2.593c-2.881-2.16-5.545-1.584-9-2.232c-7.488,5.832-13.608,14.256-18.504,21.744
			c-3.168,4.824-7.992,1.656-11.592,4.68c-3.96,3.384-6.192,8.136-8.712,12.384c-43.344-0.071-90.504-28.079-117.792-54.144
			C37.82,311.4,13.7,259.345,14.78,213.048c5.04-2.304,9.36-5.831,15.192-6.479c4.104,4.32,5.256,11.232,11.232,13.392
			c3.384,1.152,6.552,2.521,9.792,3.96c2.448-2.52,6.048-2.376,8.712-4.319c4.464-0.36,8.352,1.512,11.232,4.319
			c1.872,3.456,3.024,7.488,6.12,10.152l7.992-0.36c-0.072,3.744-1.224,6.984-1.8,10.513c-3.6,4.896-10.008,3.312-14.184,6.479
			c-6.336,5.04-9.648,13.608-15.552,19.584c-1.368,2.664-0.504,4.824,0.72,7.272c5.904,11.231,8.424,24.048,13.464,34.775
			c2.016,1.944,5.112-1.151,6.48,1.801c4.608,9.936,6.624,21.384,13.032,30.456c4.032,1.512,8.856,0.216,12.312,3.6
			c4.248,1.008,3.384,6.912,7.632,6.912c4.176,2.16,9.864,3.672,14.472,1.439c7.776,5.328,10.224,16.129,18.144,22.104
			c2.232,1.728,5.976,3.528,8.712,5.76c6.84,2.16,14.904,0.288,21.312,4.752c2.016,1.368,1.872-1.728,2.952-2.52
			c0.36-7.057-4.68-10.872-5.472-17.424c-1.584-1.656-3.528-2.305-5.76-2.521c-2.736-7.344-1.512-18-11.232-20.664
			c6.336-11.016-0.792-22.824,1.08-34.056c0.864-5.473,7.128-5.544,10.512-9.792c2.448-3.097,4.968-6.12,5.04-10.08
			c-2.52-9.433,6.696-16.561,5.832-24.336c-0.792-6.984,0.072-14.473-3.672-20.305c-2.088-3.312-3.168-8.424-7.2-9.791
			c-5.904-5.257-14.256-3.528-21.744-2.881l-7.992-7.632c-7.704-2.808-13.824,3.888-21.024,2.952
			c-8.064-1.008-12.24-9.432-15.192-15.984c-4.176-4.392-10.224-1.439-15.192-3.239c-1.008-6.265,1.008-12.96,5.76-16.632
			c4.968,2.663,10.512,0,14.904-1.801c4.104-1.8,5.976-6.983,11.16-6.191c0.936,0.144,2.232,0.288,3.312,0.72
			c4.752,7.056,4.104,16.344,9.792,23.544c2.952,3.744,6.84,4.68,10.8,3.6c5.184-3.743,6.552-11.016,6.192-16.632
			c2.088-5.328-6.192-7.848-3.6-12.312c3.528-3.384,5.904-9.504,3.6-14.544c-0.936-1.944-0.936-4.32-1.44-6.48
			c4.176-1.872,5.544-6.552,9.072-9.072c0.36-2.088,0.936-4.319,0.72-6.119c3.312-10.08-10.368-12.96-9.432-20.664
			c0.72-6.192,8.784-6.336,12.312-10.512c-2.088-4.752,4.536-9.648-0.36-13.824c-3.024-2.52-6.12-4.968-8.64-7.56
			c-5.976,2.592-11.304,7.344-16.344,11.232c-1.296-2.16,1.296-6.048-2.232-7.272c-2.088-0.72-4.032,1.44-5.76-0.36
			c2.304-1.872,5.4-3.312,7.632-6.12c4.896-2.88,13.104,0.936,16.272-5.832c1.728-3.672,1.656-7.992,3.312-11.592
			c-0.432-2.88-0.36-6.264-2.88-7.92c-1.872-0.648-3.6-1.584-5.112-2.952c-0.648-5.472,4.68-11.016-0.36-15.552
			c-2.16-0.936-3.96-4.176-6.552-2.952c-4.392-1.512-9.072,1.944-13.752,0.792c-1.944,0.288-4.176,0.576-5.04,2.52
			c-1.728,3.744-1.44,7.632-3.312,11.232c-4.68,3.312-11.88,1.872-14.832,8.28c-0.72,1.584-1.08,3.168-2.52,4.392
			c-2.664-0.216-5.112-0.864-7.272-2.16c0.72-6.552,6.336-12.816,2.16-19.584c55.584-40.104,116.784-43.776,161.999-35.136
			c-1.799,3.456-0.432,6.624,1.801,9.36c3.6,1.368,6.768,0.504,10.871,0.792c3.168-2.016,6.193-4.392,9.793-5.472
			c3.096,0.864,6.48,1.152,9.432,2.592c-3.959,3.312-8.496-0.216-12.385,2.52c-0.936,3.744-3.096,6.624-2.52,10.512
			c-6.48,1.872-12.527,4.752-18.432,7.92c-2.809,3.96-0.721,10.368-1.871,14.472c-7.272,0.36-12.672,6.408-19.512,8.784
			c-1.873,8.64-3.889,16.2-5.832,24.984c3.815,6.48,11.303,8.712,18.144,10.08c2.376,0.504,4.104-0.72,6.12-1.08
			c0.936-2.376,2.951-5.256,1.08-7.92c1.654-0.936,3.959-2.304,5.111-4.392c0.504-2.448-2.881-6.624,1.799-7.2
			c7.273-0.936,7.201,11.232,14.904,10.08c5.256-0.72,12.602,0.36,15.553-6.12c1.512-0.576,2.16,0.936,3.24,1.44l2.52,11.232
			c5.688,5.976,12.816-0.504,18.504,4.392c2.52-2.592,2.809-6.552,2.52-9.792c-3.096-2.52-6.479-5.04-9.072-7.992
			c2.305-1.944,5.904-3.024,8.713-1.44c3.24,5.256,6.48,9.792,11.232,14.472c0.648,5.976-3.096,11.016-5.76,15.984
			c-2.809,1.944-5.328,5.976-9.504,5.4c-1.945-0.288-4.465,0.36-6.48,0.36c-10.369,0-16.561-10.296-27.145-8.712
			c-5.615,2.448-10.656,8.496-17.424,5.832c-4.463-1.8-9.504-2.448-14.111,0c-5.111,2.664-6.695,7.272-10.512,11.232
			c-3.385,7.561-7.561,14.832-11.592,22.104c-1.513,6.048-3.672,11.664-2.953,18.792c1.152,10.08,1.369,20.376,2.593,30.456
			c0.864,2.088,2.592,3.815,3.6,5.832c5.185,3.672,11.232,4.68,16.345,8.712c8.279,6.552,20.52,9.288,31.104,5.399
			c5.615-2.088,10.295-6.336,15.984-7.992c5.832-1.655,11.375,2.521,13.391,6.912c5.184,11.376,1.873,24.12,2.881,36.217
			c1.08,11.88,15.047,10.224,21.383,17.063c7.992,8.568,7.992,21.888,15.266,31.104c5.256-2.16,10.15-5.257,15.191-8.28
			c3.816-5.472,10.08-7.992,11.232-14.544c-2.232-16.92,6.695-32.473,9.791-48.528c1.152-5.976-7.488-8.424-5.111-14.832
			c3.744-10.008,11.16-17.784,14.904-27.576c-5.473-15.552-7.201-31.968-11.664-47.447c-4.537-1.801-7.777-6.769-13.033-6.912
			c-4.248,1.943-2.303,8.496-6.84,9.432c0.793-5.04,1.945-10.584-1.439-14.832c4.969-1.008,11.305-2.304,14.473,2.521
			c4.752,7.128,17.279,5.399,16.344,15.983c4.391,9.072-4.248,18.072,1.799,26.424c0.145,4.896,4.896,7.704,8.281,10.513
			c4.104-0.145,7.344,1.8,11.664,1.08C408.115,259.704,374.059,318.456,327.836,349.992z"/>
		<path style="fill:#94CB71;" d="M255.691,23.185c4.104,0.792,8.641,0.504,11.592-2.52c-4.176-0.936-8.207-2.52-12.672-2.88
			C254.324,19.8,254.107,22.032,255.691,23.185z"/>
		<path style="fill:#94CB71;" d="M269.803,43.488c-2.52-0.936-5.039,0.216-7.559,0.36c-2.881,2.016-7.129,1.8-9.432,4.392
			c-0.145,2.664-1.297,6.264-0.361,9.36c-2.736,11.592-16.055,7.488-21.743,15.624c-1.008,6.192-2.088,12.888-4.032,18.864
			c3.816,2.952,8.424,5.688,13.465,6.12c1.08-1.584-0.648-2.952,0-4.752c0.863-2.232,3.383-1.152,4.68-2.52
			c1.727-1.8,1.512-4.464,1.08-6.84c1.439-1.8,2.592-3.384,4.752-4.392c3.238-1.44,6.336-0.72,9.359-1.44
			c5.328,2.376,3.889,9.576,9.791,10.512c6.266,1.008,7.346-5.616,12.385-7.56c2.52-1.008,4.32,0.72,6.48,1.08
			c5.471,3.168,4.824,9.504,5.832,14.832c4.031-0.144,6.768-1.44,10.152,1.08c0.215-0.936,1.008-1.728,0.719-2.88
			c-2.951-2.016-5.615-4.464-6.912-7.992c0-2.52,0.938-5.544,3.313-6.12c3.6-0.936,7.703-4.608,11.52-0.792
			c4.752,4.752,5.4,12.096,12.025,15.624c0.504,3.096,3.6,6.048,1.367,9.432c-2.232,9.504-10.439,18.432-19.943,22.104
			c-5.689-1.151-12.24-0.432-17.354-3.312c-3.527-3.816-8.424-4.248-12.672-6.48c-9.287,7.344-22.248,3.816-33.335,6.48
			c-3.815,0.936-7.2,4.032-8.712,7.632c-4.464,4.464-4.607,10.584-7.992,15.552c-9.144,13.896-3.168,30.744-3.96,46.008
			c1.08,2.952,2.16,5.832,3.24,8.784c10.656,3.889,17.64,12.889,29.376,15.192c12.313,2.304,20.807-9.72,32.256-10.152
			c7.127-0.288,11.16,5.832,16.703,10.152c1.225,1.8,1.801,3.888,2.881,5.76c2.809,11.952-2.088,24.048,2.16,35.928
			c1.152,3.024,4.967,2.376,7.199,3.961c15.121,4.752,19.584,20.592,23.977,33.695c2.447-0.72,4.535-2.16,6.84-3.312
			c3.455-3.96,8.137-6.048,10.871-10.801c4.393-7.703-0.432-16.703,3.672-24.695c0.865-6.12,5.113-10.872,6.842-16.632
			c0.936-2.952,0.215-6.049,0-9.072c-3.313-1.368-7.057-4.104-6.48-7.992c1.512-11.16,9.648-19.368,15.191-28.584
			c3.527-5.76,1.08-11.088,0-16.704c-2.52-2.448-2.375-5.976-4.32-8.712c-0.359-7.56,0-13.968-1.439-21.312
			c-0.863-4.248-5.832-4.393-8.713-6.553c-2.23,2.521-2.375,6.265-5.832,7.92c-2.23-0.432-2.951,2.593-5.398,1.513
			c-4.752-5.977-1.008-14.904-5.473-21.024c-1.367-1.872,1.225-3.023,1.871-4.032c3.674-0.575,7.92-2.88,12.24-2.88
			c7.416,0,12.096,5.904,15.625,11.305c3.313,1.439,7.848-0.145,10.871,2.088c0.576,3.527,2.377,6.264,3.24,9.792
			c2.52,9.647-6.912,18.216-0.359,27.576c3.168,4.464,9.791,4.896,14.473,6.479c0-6.12-0.721-11.88-1.801-17.712
			c-1.656-9.36-4.752-18.36-7.92-27.216c-2.52-6.769-5.688-13.176-9.072-19.512c-5.473-10.224-11.305-18.432-18.504-27.936
			c-3.168-0.504-6.049-3.672-9.072-1.44c-2.809-5.76,0.504-14.472-5.76-18.432c-1.729-1.152-2.016,1.728-3.6,1.008
			c-2.377-2.736-5.904-5.112-6.193-9c-5.111-4.536-10.512-8.712-15.982-12.312c-10.873-7.344-22.465-12.456-33.336-19.584
			c-6.193,2.088-13.033,0.504-19.514,1.8C273.188,35.064,273.619,40.752,269.803,43.488z"/>
		<path style="fill:#94CB71;" d="M161.516,47.88c5.256,14.544-15.048,23.328-5.832,39.096c5.112-0.504,8.352-6.264,10.872-10.152
			c0.936-3.888,2.952-7.344,4.752-10.872c4.104-4.536,9.36-6.48,13.392-11.232c2.664-3.168-2.448-3.312-2.52-5.4
			c-3.312-2.232-6.048-5.472-9.792-6.552C168.932,44.856,164.9,45.72,161.516,47.88z"/>
		<path style="fill:#94CB71;" d="M228.548,47.088c0.72-2.016-1.8-0.864-2.231-2.52c-0.793,0.72-1.729-0.36-2.881,0
			c-1.871,2.16-3.6,4.32-4.319,6.912C222.716,52.272,225.885,49.752,228.548,47.088z"/>
		<path style="fill:#3AC1E9;" d="M96.644,114.12c3.168-2.592,7.344-5.112,9.072-9c-0.864-0.36-1.584-1.152-2.592-1.152
			c-3.312,2.16-7.344,4.896-7.92,9.072C95.564,113.76,95.564,114.408,96.644,114.12z"/>
		<path style="fill:#3AC1E9;" d="M112.556,121.032c2.592-1.152,3.24-3.816,3.672-6.12c-2.664-2.088-5.184,2.376-5.832,5.04
			C110.972,120.672,111.692,121.032,112.556,121.032z"/>
		<path style="fill:#3AC1E9;" d="M31.772,118.873c-1.944,3.672-4.104,7.848-5.76,11.952l5.4-4.032L31.772,118.873z"/>
		<path style="fill:#94CB71;" d="M386.516,247.824c-2.377,2.232-13.248,19.872-8.713,22.464
			C387.092,268.272,388.172,248.112,386.516,247.824z"/>
		<path style="fill:#94CB71;" d="M306.092,343.872c-3.527-1.439-7.201-0.144-10.512,0.721c-1.801-3.024-4.609-1.729-7.633-2.521
			c-4.104,2.88-4.535,8.064-6.48,12.313c-5.76,0.863-12.672,2.231-17.063,6.84c-5.4,5.688-12.744,1.08-18.504,0
			c-2.232-0.36-3.385,2.016-5.4,2.231c-4.968,6.84-10.584-4.248-15.912,0c-5.472,7.992-12.023,15.265-15.624,24.624
			c-3.672-0.504-7.488,1.872-11.232,1.8c-1.8,1.297-4.392,3.456-4.392,6.192c9.072,1.872,18.145-0.72,27.217-0.72
			c15.264-0.145,28.582-4.752,42.047-9.072c9.721-3.168,19.08-7.632,27.863-12.672c10.297-5.976,21.098-10.512,29.736-18.145
			c-2.16-2.088-4.463-0.504-6.912-1.8C308.18,353.088,307.676,347.473,306.092,343.872z"/>
		<path style="fill:#3AC1E9;" d="M392.996,186.265c-3.385-2.809-8.137-5.616-8.281-10.513c-6.047-8.352,2.592-17.352-1.799-26.424
			c0.936-10.584-11.592-8.855-16.344-15.983c-3.168-4.824-9.504-3.528-14.473-2.521c3.385,4.248,2.232,9.792,1.439,14.832
			c4.537-0.936,2.592-7.488,6.84-9.432c5.256,0.144,8.496,5.111,13.033,6.912c4.463,15.479,6.191,31.896,11.664,47.447
			c-3.744,9.792-11.16,17.568-14.904,27.576c-2.377,6.408,6.264,8.856,5.111,14.832c-3.096,16.056-12.023,31.608-9.791,48.528
			c-1.152,6.552-7.416,9.072-11.232,14.544c-5.041,3.023-9.936,6.12-15.191,8.28c-7.273-9.217-7.273-22.536-15.266-31.104
			c-6.336-6.84-20.303-5.184-21.383-17.063c-1.008-12.097,2.303-24.841-2.881-36.217c-2.016-4.392-7.559-8.567-13.391-6.912
			c-5.689,1.656-10.369,5.904-15.984,7.992c-10.584,3.889-22.824,1.152-31.104-5.399c-5.112-4.032-11.16-5.04-16.345-8.712
			c-1.008-2.017-2.735-3.744-3.6-5.832c-1.224-10.08-1.44-20.376-2.593-30.456c-0.719-7.128,1.44-12.744,2.953-18.792
			c4.031-7.272,8.207-14.544,11.592-22.104c3.816-3.96,5.4-8.568,10.512-11.232c4.607-2.448,9.648-1.8,14.111,0
			c6.768,2.664,11.809-3.384,17.424-5.832c10.584-1.584,16.775,8.712,27.145,8.712c2.016,0,4.535-0.648,6.48-0.36
			c4.176,0.576,6.695-3.456,9.504-5.4c2.664-4.968,6.408-10.008,5.76-15.984c-4.752-4.68-7.992-9.216-11.232-14.472
			c-2.809-1.584-6.408-0.504-8.713,1.44c2.594,2.952,5.977,5.472,9.072,7.992c0.289,3.24,0,7.2-2.52,9.792
			c-5.688-4.896-12.816,1.584-18.504-4.392l-2.52-11.232c-1.08-0.504-1.729-2.016-3.24-1.44c-2.951,6.48-10.297,5.4-15.553,6.12
			c-7.703,1.152-7.631-11.016-14.904-10.08c-4.68,0.576-1.295,4.752-1.799,7.2c-1.152,2.088-3.457,3.456-5.111,4.392
			c1.871,2.664-0.145,5.544-1.08,7.92c-2.016,0.36-3.744,1.584-6.12,1.08c-6.841-1.368-14.328-3.6-18.144-10.08
			c1.943-8.784,3.959-16.344,5.832-24.984c6.84-2.376,12.239-8.424,19.512-8.784c1.15-4.104-0.938-10.512,1.871-14.472
			c5.904-3.168,11.951-6.048,18.432-7.92c-0.576-3.888,1.584-6.768,2.52-10.512c3.889-2.736,8.426,0.792,12.385-2.52
			c-2.951-1.44-6.336-1.728-9.432-2.592c-3.6,1.08-6.625,3.456-9.793,5.472c-4.104-0.288-7.271,0.576-10.871-0.792
			c-2.232-2.736-3.6-5.904-1.801-9.36c-45.215-8.64-106.415-4.968-161.999,35.136c4.176,6.768-1.44,13.032-2.16,19.584
			c2.16,1.296,4.608,1.944,7.272,2.16c1.44-1.224,1.8-2.808,2.52-4.392c2.952-6.408,10.152-4.968,14.832-8.28
			c1.872-3.6,1.584-7.488,3.312-11.232c0.864-1.944,3.096-2.232,5.04-2.52c4.68,1.152,9.36-2.304,13.752-0.792
			c2.592-1.224,4.392,2.016,6.552,2.952c5.04,4.536-0.288,10.08,0.36,15.552c1.512,1.368,3.24,2.304,5.112,2.952
			c2.52,1.656,2.448,5.04,2.88,7.92c-1.656,3.6-1.584,7.92-3.312,11.592c-3.168,6.768-11.376,2.952-16.272,5.832
			c-2.232,2.808-5.328,4.248-7.632,6.12c1.728,1.8,3.672-0.36,5.76,0.36c3.528,1.224,0.936,5.112,2.232,7.272
			c5.04-3.888,10.368-8.64,16.344-11.232c2.52,2.592,5.616,5.04,8.64,7.56c4.896,4.176-1.728,9.072,0.36,13.824
			c-3.528,4.176-11.592,4.32-12.312,10.512c-0.936,7.704,12.744,10.584,9.432,20.664c0.216,1.8-0.36,4.031-0.72,6.119
			c-3.528,2.521-4.896,7.2-9.072,9.072c0.504,2.16,0.504,4.536,1.44,6.48c2.304,5.04-0.072,11.16-3.6,14.544
			c-2.592,4.464,5.688,6.983,3.6,12.312c0.36,5.616-1.008,12.889-6.192,16.632c-3.96,1.08-7.848,0.145-10.8-3.6
			c-5.688-7.2-5.04-16.488-9.792-23.544c-1.08-0.432-2.376-0.576-3.312-0.72c-5.184-0.792-7.056,4.392-11.16,6.191
			c-4.392,1.801-9.936,4.464-14.904,1.801c-4.752,3.672-6.768,10.367-5.76,16.632c4.968,1.8,11.016-1.152,15.192,3.239
			c2.952,6.553,7.128,14.977,15.192,15.984c7.2,0.936,13.32-5.76,21.024-2.952l7.992,7.632c7.488-0.647,15.84-2.376,21.744,2.881
			c4.032,1.367,5.112,6.479,7.2,9.791c3.744,5.832,2.88,13.32,3.672,20.305c0.864,7.775-8.352,14.903-5.832,24.336
			c-0.072,3.96-2.592,6.983-5.04,10.08c-3.384,4.248-9.648,4.319-10.512,9.792c-1.872,11.231,5.256,23.04-1.08,34.056
			c9.72,2.664,8.496,13.32,11.232,20.664c2.232,0.216,4.176,0.864,5.76,2.521c0.792,6.552,5.832,10.367,5.472,17.424
			c-1.08,0.792-0.936,3.888-2.952,2.52c-6.408-4.464-14.472-2.592-21.312-4.752c-2.736-2.231-6.48-4.032-8.712-5.76
			c-7.92-5.976-10.368-16.776-18.144-22.104c-4.608,2.232-10.296,0.721-14.472-1.439c-4.248,0-3.384-5.904-7.632-6.912
			c-3.456-3.384-8.28-2.088-12.312-3.6c-6.408-9.072-8.424-20.521-13.032-30.456c-1.368-2.952-4.464,0.144-6.48-1.801
			c-5.04-10.728-7.56-23.544-13.464-34.775c-1.224-2.448-2.088-4.608-0.72-7.272c5.904-5.976,9.216-14.544,15.552-19.584
			c4.176-3.168,10.584-1.584,14.184-6.479c0.576-3.528,1.728-6.769,1.8-10.513l-7.992,0.36c-3.096-2.664-4.248-6.696-6.12-10.152
			c-2.88-2.808-6.768-4.68-11.232-4.319c-2.664,1.943-6.264,1.8-8.712,4.319c-3.24-1.439-6.408-2.808-9.792-3.96
			c-5.976-2.159-7.128-9.071-11.232-13.392c-5.832,0.648-10.152,4.176-15.192,6.479C13.7,259.345,37.82,311.4,68.708,341.568
			c27.288,26.064,74.448,54.072,117.792,54.144c2.52-4.248,4.752-9,8.712-12.384c3.6-3.023,8.424,0.145,11.592-4.68
			c4.896-7.488,11.016-15.912,18.504-21.744c3.455,0.648,6.119,0.072,9,2.232c3.239,2.376,5.832-1.08,8.352-2.593
			c5.904-0.792,10.584,1.152,15.623,2.593c4.969-5.257,11.664-7.92,18.432-9.433c4.537-3.815,3.24-12.527,10.873-13.464
			c5.471,2.232,12.527,1.656,17.783,3.313c6.912-2.88,5.76,6.264,9.432,9c3.457,2.664,8.641,1.008,13.033,1.439
			c46.223-31.536,80.279-90.288,76.824-162.647C400.34,188.064,397.1,186.12,392.996,186.265z M170.948,77.544
			c-3.672,6.192-8.064,14.328-15.984,15.552c-5.688-6.12-7.128-24.48,1.44-32.688c5.904-8.496-4.176-13.68,2.232-16.92
			c5.04-2.592,10.728-4.824,16.272-5.04l6.192,5.4c3.384,2.376,6.912,4.464,10.152,7.272
			C189.02,64.08,170.588,63.864,170.948,77.544z M219.477,43.128c4.68-3.168,13.031-2.448,15.191,3.96
			c0,3.888-4.393,5.04-6.84,6.912c-3.889-0.72-6.336,2.88-10.152,1.08c-1.367-0.216-1.656-2.16-2.52-3.24
			C215.516,48.528,216.523,45.216,219.477,43.128z M383.924,271.368c-1.225,1.8-3.6,3.024-5.4,2.952
			c-0.936,0.72-2.016-0.576-2.879-1.08c-2.594-1.584-2.305-4.68-2.881-7.271c0.721-9.505,7.775-15.841,9.432-24.984
			c1.729-2.016,3.385,0.576,5.041,1.08c1.223,1.656,2.807,3.24,3.6,5.04C391.844,256.104,388.82,264.385,383.924,271.368z"/>
		<path style="fill:#94CB71;" d="M42.644,215.641c2.52,1.943,6.552,0.863,9.432,2.16c3.528-3.96,8.784-3.24,13.392-2.16
			c4.824,2.664,11.088,5.76,13.032,11.52c2.592,0.36,4.824,2.376,7.632,1.152c6.336,4.248,1.584,12.096,2.16,18.072
			c-4.464,5.832-12.24,4.968-17.712,9.432c-3.312,2.664-2.088,6.768-4.032,9.792c-4.752-0.216-5.328,5.256-6.84,8.28
			c2.16,8.279,4.32,16.487,6.48,24.695c-1.152,12.528,15.912,8.137,15.624,19.944c-0.144,6.84,3.672,11.952,6.12,17.712
			c5.472,4.896,14.328,6.192,19.224,12.744c5.904,3.6,12.816,0.72,19.152,1.008c7.128,9.864,13.68,19.944,22.176,28.656
			c5.256,1.8,11.016,2.16,16.272,4.032c-0.36-2.088-0.72-4.177-1.08-6.192c-1.152-2.304-4.032-2.16-5.76-3.6
			c-3.024-2.521-4.392-7.057-3.672-11.664c1.008-6.336-6.696-8.496-9.36-13.032c-0.288-5.76,4.32-9.792,3.96-15.552
			c-0.36-5.688-2.736-10.152-2.232-15.984c-4.896-7.128,3.816-10.656,6.912-15.552c3.744-2.521,8.136-5.616,9.432-10.152
			c-0.144-4.392-1.296-9.432,0.72-13.752c0.864-1.943,3.096-4.248,5.112-4.32c-0.216-6.336-1.368-12.815-2.232-18.863
			c-0.504-3.889-3.744-6.769-5.76-10.152c-5.544-4.392-14.688-5.328-21.024-2.16c-6.192-0.72-4.968-7.92-10.512-10.151
			c-7.56,0.144-14.544,4.464-22.104,3.6c-6.984-0.792-10.584-7.632-12.672-13.752c-2.376-7.128-11.52-3.024-16.632-6.12
			c-0.936-1.296-4.32-1.728-3.312-4.392c-1.008-6.265,3.744-11.376,5.832-17.064c2.88-8.063,10.296-2.231,15.192-4.32
			c5.328-0.216,7.488-5.544,12.312-6.84c3.384,0.216,6.768-0.432,9.792,0c8.784,5.185,5.04,16.128,11.592,23.185
			c0.864,3.023,3.312,4.031,5.832,4.68c2.592-2.016,2.016-6.264,2.88-9.432c1.44-5.761-6.912-8.568-5.112-14.473
			c7.128-5.832,4.536-16.56,2.592-23.903c1.872-3.097,5.04-4.464,7.56-6.912l3.24-6.84c2.52-11.376-13.392-7.921-10.512-19.225
			c-0.432-1.512,0.216-3.456,0.36-5.111c0.648-5.904,7.488-4.752,10.872-7.92c0.144-2.592,2.952-4.32,2.592-6.912
			c-0.432-2.664-2.592-4.752-4.392-6.912c-4.896,0-8.352,4.392-11.952,6.912c-2.664-0.072-6.408,2.88-9.432,1.08
			c-2.16-1.224-1.368-4.392-1.44-6.12c-2.304-0.288-5.04-0.288-6.84-1.872c-1.584-8.712,10.44-7.632,12.672-15.192
			c3.024-2.16,5.688,1.368,9.072,0c2.88-1.224,2.736-4.968,4.32-7.272c5.112-7.056-5.832-7.344-6.84-12.672
			c-1.152-5.328,5.616-9.216,2.88-14.472c-4.176-7.92-12.168,0.432-18.864-0.72c-3.024,2.952-4.104,7.416-5.832,11.232
			c-1.656,3.744-5.256,3.528-8.64,4.392c-5.616,1.224-4.896,7.056-8.352,10.08c-4.968,2.448-9.72-0.936-14.472-2.16
			c-1.224-4.968,1.728-9.936,0.72-14.472c-1.08-1.008-2.448-1.224-3.96-1.08c-14.184,10.872-34.632,32.904-42.12,49.968
			c1.296,5.976,0.792,11.592,0.432,17.784c-3.096,7.991-13.68,5.688-15.192,13.752c-2.016,10.512-6.696,20.592-7.272,31.536
			c1.728,2.088,0.576,5.688,3.96,6.84c0.288,4.752-6.336,6.479-5.472,11.664c0.936,4.752-1.512,9.647,1.152,14.472
			c5.832-1.08,11.232-3.168,16.632-5.472C37.388,203.112,37.244,211.393,42.644,215.641z M117.308,110.521
			c3.6,1.512,0.72,5.616,1.08,8.352c-2.952,2.88-4.32,6.696-9.072,6.192c-1.368-1.08-2.664-1.8-2.88-3.672
			c-0.432-4.104,2.232-7.128,5.112-9.432C113.06,110.736,115.364,111.024,117.308,110.521z M92.684,109.08
			c3.672-3.456,6.696-9.432,12.672-7.632c1.656-0.576,3.816,0.792,4.68,2.52c-0.36,3.024-1.656,6.768-4.68,8.712
			c-3.888,2.592-7.992,5.4-12.672,4.752C90.092,115.128,90.236,111.384,92.684,109.08z"/>
	</g>
	<rect y="0" style="fill:none;" width="416.056" height="409.751"/>
</g>
</svg>
